<?xml version="1.0" encoding="utf-8"?><svg version="1.1" id="Layer_1" xmlns="http://www.w3.org/2000/svg" xmlns:xlink="http://www.w3.org/1999/xlink" x="0px" y="0px" viewBox="0 0 122.88 79.03" style="enable-background:new 0 0 122.88 79.03" xml:space="preserve"><style type="text/css">.st0{fill-rule:evenodd;clip-rule:evenodd;}</style><g><path class="st0" d="M88.67,9.74v69.28H34.21V9.74H14.5c-2.17,0-3.6,1.57-4.27,3.58c-0.33,0.98-0.49,2.1-0.49,3.27 c0,1.17,0.16,2.29,0.49,3.27c0.67,2.01,2.1,3.58,4.27,3.58h7.48c2.69,0,4.87,2.18,4.87,4.87s-2.18,4.87-4.87,4.87H14.5 c-7.08,0-11.56-4.51-13.48-10.28C0.34,20.86,0,18.7,0,16.59c0-2.11,0.34-4.27,1.02-6.32C2.94,4.51,7.42,0,14.5,0h93.87 c7.08,0,11.56,4.51,13.48,10.28c0.68,2.05,1.02,4.21,1.02,6.32c0,2.11-0.34,4.27-1.02,6.32c-1.92,5.77-6.4,10.28-13.48,10.28h-9.41 c-2.69,0-4.87-2.18-4.87-4.87s2.18-4.87,4.87-4.87h9.41c2.17,0,3.6-1.57,4.27-3.58c0.33-0.98,0.49-2.1,0.49-3.27 c0-1.17-0.16-2.29-0.49-3.27c-0.67-2.01-2.1-3.58-4.27-3.58H88.67L88.67,9.74z M42.76,9.74v51.68c4.43,0,8.04,3.61,8.04,8.05h21.53 c0-4.43,3.61-8.05,8.04-8.05V9.74H42.76L42.76,9.74z M61.77,17.1c5.07,0,9.17,4.11,9.17,9.18c0,5.07-4.11,9.17-9.17,9.17 c-5.07,0-9.18-4.11-9.18-9.17C52.6,21.2,56.7,17.1,61.77,17.1L61.77,17.1z M77.45,26.67c0,8.86-7.16,16.03-16.03,16.03 c-8.86,0-16.03-7.16-16.03-16.03c0-8.86,7.16-16.03,16.03-16.03C70.29,10.65,77.45,17.81,77.45,26.67L77.45,26.67z" fill="#9461fb"/></g></svg>